<?xml version="1.0" standalone="no"?>
<!DOCTYPE svg PUBLIC "-//W3C//DTD SVG 20010904//EN"
 "http://www.w3.org/TR/2001/REC-SVG-20010904/DTD/svg10.dtd">
<svg version="1.0" xmlns="http://www.w3.org/2000/svg"
 width="500.000000pt" height="500.000000pt" viewBox="0 0 500.000000 500.000000"
 preserveAspectRatio="xMidYMid meet">

<g transform="translate(0.000000,500.000000) scale(0.100000,-0.100000)"
fill="#000000" stroke="none">
<path d="M2505 3155 c0 -253 1 -355 2 -227 2 128 2 335 0 460 -1 125 -2 20 -2
-233z"/>
<path d="M2945 3190 c-33 -4 -106 -8 -162 -9 -57 -1 -103 -5 -103 -10 0 -5 12
-11 27 -13 61 -7 83 -87 83 -309 l0 -149 50 0 50 0 0 225 0 224 43 12 c61 17
172 25 244 17 177 -20 316 -170 369 -400 l18 -78 48 0 c57 0 58 4 27 106 -61
200 -197 336 -380 379 -67 15 -209 18 -314 5z"/>
<path d="M1285 3170 c3 -5 14 -10 24 -10 27 0 59 -40 70 -90 6 -25 11 -118 11
-208 l0 -163 53 3 52 3 5 190 c6 215 16 251 71 262 74 14 27 23 -126 23 -108
0 -164 -3 -160 -10z"/>
<path d="M2014 3152 c35 -68 28 -165 -19 -247 -31 -54 -109 -126 -181 -167
l-59 -33 47 -3 c95 -6 262 111 318 223 31 63 39 164 17 218 -16 37 -16 37 -77
37 l-61 0 15 -28z"/>
<path d="M1195 2600 c-3 -6 5 -10 19 -10 24 0 25 -3 29 -62 l3 -63 2 63 c2 59
3 62 27 62 14 0 25 5 25 10 0 6 -22 10 -49 10 -28 0 -53 -4 -56 -10z"/>
<path d="M1387 2603 c-4 -3 -7 -35 -7 -70 l0 -63 53 2 c50 1 50 2 10 5 -38 4
-43 7 -43 28 0 20 6 24 38 28 l37 4 -37 1 c-33 2 -38 5 -38 27 0 23 4 25 41
25 24 0 38 4 34 10 -7 11 -78 14 -88 3z"/>
<path d="M1581 2539 c1 -41 4 -64 6 -51 3 14 12 22 26 22 11 0 32 -10 46 -22
l25 -23 -17 27 c-14 22 -14 27 -2 32 16 6 21 61 7 70 -5 3 -28 8 -50 12 l-42
7 1 -74z m84 21 c0 -22 -5 -25 -37 -28 -36 -3 -38 -2 -38 28 0 30 2 31 38 28
32 -3 37 -6 37 -28z"/>
<path d="M1760 2605 c0 -3 11 -23 25 -45 14 -22 25 -51 25 -65 0 -14 5 -25 10
-25 6 0 10 12 10 26 0 15 10 42 21 61 12 19 19 36 16 39 -3 3 -13 -8 -22 -25
-19 -39 -30 -39 -50 -2 -14 28 -35 49 -35 36z"/>
<path d="M2498 2604 c-5 -4 -8 -36 -8 -71 l0 -63 45 0 c32 0 51 6 65 20 25 25
26 72 2 93 -20 18 -93 33 -104 21z m94 -31 c10 -9 18 -24 18 -35 0 -28 -36
-58 -70 -58 -30 0 -30 1 -30 55 l0 55 32 0 c17 0 40 -7 50 -17z"/>
<path d="M2710 2600 c0 -5 19 -10 41 -10 l41 0 -38 -47 c-20 -27 -42 -54 -47
-60 -7 -10 4 -13 49 -11 50 1 53 2 17 5 -24 2 -43 7 -43 10 0 3 18 28 40 55
22 28 40 55 40 59 0 5 -22 9 -50 9 -27 0 -50 -4 -50 -10z"/>
<path d="M3240 2541 l0 -71 39 0 c22 0 46 3 55 6 18 7 22 49 6 59 -7 4 -7 12
0 25 13 24 -7 40 -60 47 l-40 6 0 -72z m88 27 c2 -11 -6 -18 -27 -23 -37 -8
-51 -1 -51 26 0 17 6 20 37 17 26 -2 39 -8 41 -20z m7 -48 c12 -19 -16 -40
-51 -40 -30 0 -34 3 -34 25 0 22 4 25 39 25 22 0 43 -5 46 -10z"/>
<path d="M3467 2590 c-33 -26 -36 -71 -7 -100 21 -21 74 -27 85 -10 4 6 -5 7
-23 4 -22 -5 -35 -1 -51 15 -44 44 -10 98 55 88 41 -7 36 8 -6 18 -18 4 -34 0
-53 -15z"/>
<path d="M3653 2540 c0 -41 2 -60 4 -42 4 31 6 32 48 32 42 0 44 -1 48 -32 2
-18 4 1 4 42 0 41 -2 60 -4 43 -4 -32 -6 -33 -48 -33 -42 0 -44 1 -48 33 -2
17 -4 -2 -4 -43z"/>
<path d="M3871 2558 c-1 -63 14 -88 54 -88 40 0 55 25 54 88 l-2 57 -7 -59
c-9 -69 -31 -91 -70 -66 -9 5 -17 32 -21 67 l-6 58 -2 -57z"/>
<path d="M4142 2568 l-42 -43 0 38 c0 20 -4 37 -10 37 -6 0 -10 -28 -10 -65 0
-37 4 -65 10 -65 6 0 10 8 10 18 0 10 5 23 12 30 9 9 19 5 45 -20 39 -38 45
-26 6 14 l-27 28 21 22 c21 24 37 48 31 48 -2 0 -22 -19 -46 -42z"/>
<path d="M810 2535 c0 -37 4 -65 10 -65 6 0 10 8 10 18 0 10 5 23 12 30 9 9
20 5 46 -20 24 -23 31 -27 24 -12 -6 11 -18 26 -26 34 -21 17 -20 29 6 59 13
14 4 8 -20 -14 l-42 -39 0 37 c0 20 -4 37 -10 37 -6 0 -10 -28 -10 -65z"/>
<path d="M1024 2543 c-14 -32 -28 -61 -31 -65 -2 -5 0 -8 6 -8 5 0 13 9 16 20
5 15 15 20 45 20 30 0 40 -5 45 -20 3 -11 10 -20 15 -20 12 0 -47 124 -60 128
-6 2 -22 -23 -36 -55z m55 7 c10 -29 9 -30 -20 -30 -33 0 -33 0 -17 35 15 33
24 32 37 -5z"/>
<path d="M1960 2535 c0 -77 18 -88 22 -13 l3 52 40 -52 c21 -29 43 -52 47 -52
4 0 8 29 8 65 0 37 -4 65 -10 65 -5 0 -10 -21 -10 -47 l-1 -48 -40 48 c-23 26
-45 47 -50 47 -5 0 -9 -29 -9 -65z"/>
<path d="M2194 2543 c-14 -32 -28 -61 -31 -65 -2 -5 0 -8 6 -8 5 0 13 9 16 20
5 15 15 20 45 20 30 0 40 -5 45 -20 3 -11 10 -20 15 -20 12 0 -47 124 -60 128
-6 2 -22 -23 -36 -55z m55 7 c10 -29 9 -30 -20 -30 -33 0 -33 0 -17 35 15 33
24 32 37 -5z"/>
<path d="M2900 2535 c0 -37 4 -65 10 -65 6 0 10 28 10 65 0 37 -4 65 -10 65
-6 0 -10 -28 -10 -65z"/>
<path d="M3020 2557 c0 -54 22 -87 59 -87 40 0 51 17 49 80 l-1 55 -6 -54 c-7
-60 -28 -84 -58 -65 -13 8 -19 27 -21 63 -4 62 -22 69 -22 8z"/>
<path d="M1388 2208 c-5 -188 -13 -212 -73 -239 l-40 -18 170 0 170 0 -40 18
c-60 27 -68 52 -74 236 l-6 160 -51 3 -52 3 -4 -163z"/>
<path d="M1860 2220 c145 -220 158 -237 182 -255 17 -11 48 -15 128 -14 l105
0 -52 20 c-70 27 -134 95 -247 260 l-91 134 -63 3 -62 3 100 -151z"/>
<path d="M2499 1965 c-3 -225 -4 -412 -2 -414 11 -16 13 50 11 415 l-3 409 -6
-410z"/>
<path d="M2790 2253 c0 -203 -20 -269 -88 -289 -28 -9 7 -12 335 -29 99 -6
160 -4 205 4 155 30 285 133 356 281 22 47 43 100 47 118 l7 32 -50 0 -49 0
-17 -62 c-25 -89 -83 -194 -138 -249 -109 -109 -269 -142 -455 -95 l-48 12 -3
197 -2 197 -50 0 -50 0 0 -117z"/>
</g>
</svg>
